<svg width="42" height="50" viewBox="0 0 42 50" fill="none" xmlns="http://www.w3.org/2000/svg">
<rect x="3.81812" width="38.1818" height="45.8182" fill="#C4C4C4"/>
<rect y="3.81818" width="38.1818" height="45.8182" fill="#75E7F8"/>
<rect x="3.81812" y="14" width="8.90909" height="3.81818" fill="white"/>
<rect x="13.9999" y="14" width="10.1818" height="3.81818" fill="white"/>
<path d="M25.4546 14H34.3637V17.8182H25.4546V14Z" fill="white"/>
<rect x="3.81812" y="20.3636" width="8.90909" height="3.81818" fill="white"/>
<rect x="13.9999" y="20.3636" width="10.1818" height="3.81818" fill="white"/>
<path d="M25.4546 20.3636H34.3637V24.1818H25.4546V20.3636Z" fill="white"/>
<rect x="3.81812" y="26.7273" width="8.90909" height="3.81818" fill="white"/>
<rect x="13.9999" y="26.7273" width="10.1818" height="3.81818" fill="white"/>
<path d="M25.4546 26.7273H34.3637V30.5454H25.4546V26.7273Z" fill="white"/>
<rect x="3.81812" y="33.0909" width="8.90909" height="3.81818" fill="white"/>
<rect x="13.9999" y="33.0909" width="10.1818" height="3.81818" fill="white"/>
<path d="M25.4546 33.0909H34.3637V36.9091H25.4546V33.0909Z" fill="white"/>
</svg>
